<?xml version="1.0" encoding="UTF-8"?>
<!DOCTYPE svg PUBLIC "-//W3C//DTD SVG 1.1//EN" "http://www.w3.org/Graphics/SVG/1.1/DTD/svg11.dtd">
<!-- Creator: CorelDRAW 2019 (64-Bit) -->
<svg xmlns="http://www.w3.org/2000/svg" xml:space="preserve" width="170.648mm" height="166.975mm" version="1.1" style="shape-rendering:geometricPrecision; text-rendering:geometricPrecision; image-rendering:optimizeQuality; fill-rule:evenodd; clip-rule:evenodd"
viewBox="0 0 17064.76 16697.5"
 xmlns:xlink="http://www.w3.org/1999/xlink">
 <defs>
  <style type="text/css">
   <![CDATA[
    .fil0 {fill:black}
   ]]>
  </style>
 </defs>
 <g id="Capa_x0020_1">
  <metadata id="CorelCorpID_0Corel-Layer"/>
  <path class="fil0" d="M10168.32 16697.5c-203.94,-0.15 -404.59,-53.03 -582.21,-153.14l-794.2 -446.37c-79.17,-44.43 -168.58,-67.8 -259.41,-67.8 -90.82,0 -180.23,23.37 -259.41,67.78l-794.68 446.37c-177.24,100.23 -377.97,152.94 -581.74,152.94 -386.88,0 -749.51,-189.33 -970.6,-506.75l-522.95 -747.26c-101.07,-141.36 -264.29,-225.34 -438.16,-225.34 -9.47,0 -19.14,0.26 -28.54,0.72l-910.67 56.08c-25.89,1.61 -52.11,2.62 -78.18,2.62 -580.19,0 -1074.53,-422.03 -1165.27,-995.02l-146.92 -899.78c-29.09,-182.69 -152.15,-336.8 -323.93,-405.62l-843.38 -342.23c-447.52,-180.15 -740.67,-614.31 -740.67,-1096.69 0,-114.32 16.74,-228.49 49.36,-337.89l257.79 -874.15c13.98,-48.34 21.2,-98.53 21.2,-148.91 0,-131.32 -48.56,-258.08 -136.26,-355.79l-612.23 -677.37c-197.68,-217.55 -307.27,-501.28 -307.27,-795.25 0,-293.98 109.59,-577.42 307.12,-795.02l612.51 -677.77c87.62,-97.87 136.22,-224.73 136.22,-356.14 0,-50.36 -7.17,-100.53 -21.18,-148.88l-257.95 -874.15c-32.64,-109.57 -49.24,-223.34 -49.24,-337.69 0,-482.36 293.37,-916.65 740.65,-1096.83l844.18 -342.54c170.53,-69.88 293.06,-223.24 323.44,-405.09l147.08 -900.1c90.72,-572.96 584.77,-995.01 1164.92,-995.01 26.21,0 52.56,0.86 78.62,2.59l910.67 56.4c11.17,0.72 22.5,1.11 33.7,1.11 172.51,0 334.21,-84.45 432.76,-226l522.77 -746.63c220.9,-317.46 583.37,-506.92 970.22,-506.92 204.03,0 405.04,53.1 582.52,153.53l794.04 446.04c79.25,44.09 168.72,67.26 259.55,67.26 90.84,0 180.31,-23.17 259.66,-67.28l794.16 -446.39c177.45,-100.2 378.04,-153.05 581.94,-153.05 386.73,0 749.34,189.17 970.43,506.44l523.1 747.32c99.33,141.37 261.43,225.59 434.22,225.59 10.63,0 21.45,-0.39 32.01,-0.97l911 -56.07c24.17,-1.38 48.78,-2.25 73.1,-2.25 580.99,0 1076.7,421.3 1170.37,994.61l147.04 900.12c30.33,181.93 152.87,335.38 323.49,405.33l843.69 342.22c447.49,180.23 740.83,614.46 740.83,1096.91 0,114.33 -16.75,228.66 -49.37,338.09l-257.79 873.83c-14.05,48.32 -21.27,98.56 -21.27,149 0,131.23 48.55,257.98 136.17,355.61l612.19 677.4c197.6,217.6 307.21,501.22 307.21,795.25 0,293.87 -109.61,577.64 -307.02,795.13l-612.2 677.65c-87.76,97.71 -136.43,224.64 -136.43,356.07 0,50.36 7.16,100.59 21.21,148.93l257.79 874.15c32.62,109.51 49.36,223.52 49.36,337.97 0,482.32 -293.26,916.43 -740.65,1096.54l-844.03 342.54c-170.77,70 -293.27,223.47 -323.65,405.44l-146.92 899.78c-92.9,573.23 -588.27,994.72 -1169.1,994.72 -24.87,0 -49.88,-0.87 -74.61,-2.31l-910.36 -56.07c-11.08,-0.7 -22.19,-1.09 -33.24,-1.09 -172.75,0 -334.71,84.44 -433.68,225.98l-522.47 746.29c-220.91,317.69 -583.58,507.25 -970.5,507.25l0.05 0.01zm-260.68 -725.46c79.25,44.9 169.06,68.66 260.22,68.66 172.79,0 334.7,-84.79 433.2,-226.67l522.63 -746.62c224.11,-316.71 588.6,-505.31 976.76,-505.31 22.64,0 45.73,0.73 68.22,1.9l910.35 56.08c11.67,0.78 23.63,1.23 35.4,1.23 259.06,0 479.73,-188.52 520.18,-444.37l146.92 -899.78c67.96,-407.51 342.09,-751.12 724.45,-907.71l843.86 -342.55c199.92,-80.43 330.96,-274.38 330.96,-489.85 0,-51.05 -7.41,-101.84 -21.98,-150.76l-257.79 -874.15c-31.46,-108.36 -47.63,-220.83 -47.63,-333.73 0,-294.13 108.82,-578.2 305.2,-797.01l612.08 -677.47 0.16 -0.32c88.12,-97.17 137.09,-223.88 137.09,-355.11 0,-131.36 -48.97,-258.08 -137.24,-355.32l-612.03 -677.08c-196.33,-218.72 -305.14,-502.76 -305.14,-796.86 0,-112.89 16.17,-225.49 47.63,-333.86l257.79 -873.83c14.64,-49 22.05,-99.87 22.05,-150.93 0,-215.54 -131.14,-409.61 -331.08,-490.01l-843.54 -342.23c-382.32,-156.42 -656.51,-500.21 -724.37,-907.78l-147.08 -900.1c-42.97,-256.19 -264.9,-444.01 -524.77,-444.01 -10.13,0 -20.46,0.32 -30.53,0.84l-911 56.08c-23.86,1.49 -48.08,2.22 -72.15,2.22 -386.9,0 -749.87,-188.66 -972.17,-505.23l-523.07 -747.31c-98.86,-141.65 -260.84,-226.1 -433.61,-226.1 -90.97,0 -180.45,23.5 -259.66,68.11l-794.5 446.72c-177.48,98.91 -377.65,150.92 -580.87,150.92 -203.21,0 -403.38,-52.01 -580.82,-150.93l-794.41 -446.37c-79.3,-44.86 -168.96,-68.52 -260.11,-68.52 -172.82,0 -334.81,84.7 -433.44,226.52l-522.65 746.27c-221.69,316.93 -584.56,505.97 -971.46,505.97 -24.32,0 -48.78,-0.87 -72.95,-2.32l-911 -56.4c-10,-0.46 -20.21,-0.78 -30.22,-0.78 -259.93,0 -481.96,187.7 -525.13,443.99l-147.08 900.1c-67.92,407.5 -342.11,751 -724.35,907.54l-844.03 342.55c-199.86,80.52 -330.83,274.53 -330.83,490.09 0,51.03 7.42,101.81 21.94,150.72l257.95 873.82c31.55,108.36 47.58,220.89 47.58,333.71 0,294.15 -108.74,578.1 -305.09,797.04l-612.48 677.79c-88.14,97.15 -137.09,223.81 -137.09,355.05 0,131.23 48.95,257.89 137.11,355.02l612.19 677.4c196.43,218.86 305.25,502.93 305.25,797.06 0,112.9 -16.17,225.37 -47.64,333.75l-257.78 874.17c-14.56,48.91 -21.97,99.7 -21.97,150.75 0,215.47 131.03,409.41 330.9,489.78l843.49 342.24c382.15,156.82 656.55,500.63 724.5,908.15l146.92 899.78c42.17,256.03 263.63,444.09 523.23,444.09 10.68,0 21.49,-0.39 32.11,-0.97l910.99 -56.08c24.77,-1.53 50.17,-2.4 75.14,-2.4 386.2,0 748.31,188.77 969.27,505.42l522.95 747.26c98.56,141.92 260.52,226.66 433.29,226.66 91.18,0 180.89,-23.7 260.16,-68.64l794.52 -446.36c176.98,-98.76 376.49,-150.92 579.19,-150.92 0.58,0 1.17,-0.14 1.73,0 449.97,113.98 784.84,25.22 1375.18,597.3z"/>
 </g>
</svg>
